Coordinates
version=1
nRows=21
nColumns=12
inDegrees=yes

Units are S.I. units (second, meters, Newtons, ...)
Angles are in degrees

endheader
time	SC_y	SC_z	SC_x	AC_y	AC_z	AC_x	GH_y	GH_z	GH_yy	EL_x	PS_y
       0.0              -11.38          3.895          64.46          35.85          -6.33          12.57          91.58          50.94          169.6          48.09          150.2
   0.02224              -11.38          3.896          64.47          35.86         -6.329          12.57          91.57          50.93          169.6           48.1          150.2
   0.04449              -11.38          3.897          64.47          35.86         -6.328          12.57          91.57          50.92          169.6          48.11          150.2
   0.06673              -11.39          3.897          64.47          35.86         -6.327          12.57          91.56          50.92          169.6          48.11          150.1
   0.08898              -11.39          3.898          64.47          35.87         -6.327          12.57          91.55          50.91          169.6          48.12          150.1
    0.1112              -11.39          3.899          64.47          35.87         -6.326          12.57          91.54           50.9          169.5          48.13          150.1
    0.1335              -11.39          3.901          64.47          35.88         -6.325          12.57          91.53          50.89          169.5          48.14          150.1
    0.1557               -11.4          3.902          64.48          35.89         -6.324          12.56          91.52          50.88          169.5          48.15          150.1
     0.178               -11.4          3.903          64.48          35.89         -6.322          12.56          91.51          50.87          169.5          48.16          150.0
    0.2002               -11.4          3.904          64.48           35.9         -6.321          12.56           91.5          50.86          169.5          48.18          150.0
    0.2224               -11.4          3.906          64.49          35.91          -6.32          12.56          91.49          50.85          169.4          48.19          150.0
    0.2447              -11.41          3.907          64.49          35.92         -6.318          12.56          91.48          50.84          169.4           48.2          150.0
    0.2669              -11.41          3.909          64.49          35.93         -6.317          12.56          91.46          50.83          169.4          48.22          149.9
    0.2892              -11.42          3.911           64.5          35.93         -6.315          12.55          91.45          50.81          169.4          48.24          149.9
    0.3114              -11.42          3.913           64.5          35.95         -6.313          12.55          91.43           50.8          169.3          48.25          149.9
    0.3337              -11.43          3.915           64.5          35.96         -6.311          12.55          91.41          50.78          169.3          48.27          149.8
    0.3559              -11.43          3.917          64.51          35.97         -6.309          12.55          91.39          50.77          169.3           48.3          149.8
    0.3782              -11.44           3.92          64.51          35.98         -6.307          12.54          91.37          50.75          169.2          48.32          149.8
    0.4004              -11.44          3.923          64.52           36.0         -6.304          12.54          91.35          50.73          169.2          48.34          149.7
    0.4226              -11.45          3.926          64.52          36.01         -6.301          12.54          91.32           50.7          169.1          48.37          149.7
    0.4449              -11.46          3.929          64.53          36.03         -6.298          12.53          91.29          50.68          169.1           48.4          149.6
